<svg width="190" height="188" viewBox="0 0 190 188" fill="none" xmlns="http://www.w3.org/2000/svg">
<path d="M1.91601 10.7081L81.198 89.99C81.7292 90.521 82.1506 91.1515 82.4381 91.8454C82.7256 92.5392 82.8735 93.283 82.8735 94.034C82.8735 94.7851 82.7256 95.5289 82.4381 96.2227C82.1506 96.9166 81.7292 97.5471 81.198 98.078L1.91601 177.361C1.11608 178.161 0.571276 179.18 0.350487 180.289C0.129698 181.398 0.242838 182.548 0.675621 183.593C1.10841 184.638 1.84137 185.531 2.78182 186.159C3.72227 186.788 4.82796 187.123 5.95901 187.123H26.839C27.5901 187.123 28.334 186.976 29.028 186.688C29.7221 186.401 30.3527 185.98 30.884 185.449L112.746 103.587H112.872V84.607L30.886 2.62105C30.3547 2.09005 29.7241 1.66893 29.03 1.3817C28.336 1.09447 27.5921 0.946759 26.841 0.947037H5.96099C4.82998 0.946735 3.72428 1.28186 2.78375 1.91002C1.84321 2.53818 1.11008 3.43115 0.677086 4.476C0.244095 5.52085 0.130692 6.67065 0.351219 7.77995C0.571747 8.88926 1.11631 9.90826 1.91601 10.7081Z" fill="black"/>
<path d="M78.2629 10.7081L157.545 89.99C158.076 90.521 158.497 91.1515 158.785 91.8454C159.072 92.5392 159.22 93.283 159.22 94.034C159.22 94.7851 159.072 95.5289 158.785 96.2227C158.497 96.9166 158.076 97.5471 157.545 98.078L78.2629 177.361C77.463 178.161 76.9182 179.18 76.6974 180.289C76.4766 181.398 76.5898 182.548 77.0226 183.593C77.4554 184.638 78.1883 185.531 79.1288 186.159C80.0692 186.788 81.1749 187.123 82.3059 187.123H103.186C103.937 187.123 104.681 186.976 105.375 186.688C106.069 186.401 106.7 185.98 107.231 185.449L189.093 103.587H189.219V84.607L107.233 2.62105C106.702 2.09005 106.071 1.66893 105.377 1.3817C104.683 1.09447 103.939 0.946759 103.188 0.947037H82.3079C81.1769 0.946735 80.0712 1.28186 79.1307 1.91002C78.1902 2.53818 77.457 3.43115 77.024 4.476C76.591 5.52085 76.4776 6.67065 76.6982 7.77995C76.9187 8.88926 77.4632 9.90826 78.2629 10.7081Z" fill="black"/>
</svg>
