<svg width="60" height="60" viewBox="0 0 60 60" fill="none" xmlns="http://www.w3.org/2000/svg">
<g clip-path="url(#clip0_601_340)">
<path fill-rule="evenodd" clip-rule="evenodd" d="M31.7063 5.66618C30.7422 4.77794 29.2579 4.77794 28.2938 5.66618L0.811931 30.9866C0.0491123 31.6894 -0.204699 32.7881 0.172548 33.7543C0.549795 34.7205 1.48091 35.3565 2.51814 35.3565H7.49279V53.1097C7.49279 54.5004 8.62015 55.6278 10.0108 55.6278H23.3857C24.7763 55.6278 25.9037 54.5004 25.9037 53.1097V42.398H34.0974V53.1097C34.0974 54.5004 35.2248 55.6278 36.6155 55.6278H49.9903C51.381 55.6278 52.5083 54.5004 52.5083 53.1097V35.3565H57.482C58.5192 35.3565 59.4503 34.7205 59.8276 33.7543C60.2048 32.7881 59.951 31.6894 59.1882 30.9866L31.7063 5.66618Z" fill="white"/>
</g>
<defs>
<clipPath id="clip0_601_340">
<rect width="60" height="60" fill="white"/>
</clipPath>
</defs>
</svg>
