<svg width="304" height="294" viewBox="0 0 304 294" fill="none" xmlns="http://www.w3.org/2000/svg">
<path d="M2.66016 94.5365V212.26C2.66016 218.115 7.74616 222.861 14.0202 222.861H66.4042V165.208H239.727L241.861 222.861H289.976C296.249 222.861 301.336 218.115 301.336 212.26V94.5365C301.336 88.6835 296.25 83.9365 289.976 83.9365H14.0202C7.74616 83.9395 2.66016 88.6845 2.66016 94.5365Z" stroke="#9AFFEC" stroke-width="5" stroke-miterlimit="10"/>
<path d="M210.935 180.307L215.652 224.874H90.957L95.674 180.307H210.935Z" fill="#9AFFEC" stroke="#9AFFEC" stroke-width="5"/>
<path d="M255.756 160.584V224.874H237.231L230.678 171.619H75.9301L69.3771 224.874H48.2461V160.584C48.2452 158.989 48.5587 157.41 49.1687 155.936C49.7787 154.462 50.6733 153.123 51.8012 151.995C52.9292 150.867 54.2684 149.972 55.7423 149.362C57.2162 148.752 58.7959 148.439 60.3911 148.439H243.613C245.208 148.439 246.788 148.752 248.261 149.363C249.735 149.973 251.074 150.867 252.202 151.995C253.329 153.123 254.224 154.462 254.834 155.936C255.444 157.41 255.757 158.989 255.756 160.584Z" fill="#9AFFEC"/>
<path d="M239.528 222.86L248.162 290.96H58.4258L66.8258 224.877" stroke="#9AFFEC" stroke-width="5" stroke-miterlimit="10"/>
<path d="M219.966 247.115H86.6445L89.0655 224.874L93.9255 180.307H212.689L217.549 224.874L219.966 247.115Z" fill="#9AFFEC"/>
<path d="M223.779 273.64H82.8262L85.1032 260.776H221.503L223.779 273.64Z" fill="#9AFFEC"/>
<path d="M277.824 108.721C277.824 110.36 277.338 111.962 276.428 113.325C275.518 114.687 274.224 115.749 272.71 116.377C271.196 117.004 269.53 117.168 267.923 116.848C266.316 116.529 264.839 115.74 263.681 114.581C262.522 113.422 261.733 111.946 261.413 110.339C261.093 108.731 261.258 107.065 261.885 105.552C262.512 104.038 263.574 102.744 264.937 101.833C266.299 100.923 267.901 100.437 269.54 100.438C271.737 100.438 273.844 101.31 275.398 102.864C276.951 104.417 277.824 106.524 277.824 108.721Z" fill="#9AFFEC" stroke="#9AFFEC" stroke-width="5"/>
<path d="M66.6237 28.8027H80.6467V83.1678H60.1777V35.2488C60.1769 34.4021 60.3431 33.5635 60.6668 32.7811C60.9905 31.9986 61.4652 31.2877 62.064 30.689C62.6627 30.0902 63.3736 29.6155 64.156 29.2918C64.9384 28.9681 65.777 28.8019 66.6237 28.8027Z" fill="#9AFFEC"/>
<path d="M243.827 35.2488V83.1678H223.357V28.8027H237.38C238.227 28.8018 239.066 28.9679 239.848 29.2915C240.631 29.6151 241.342 30.0899 241.941 30.6887C242.54 31.2874 243.015 31.9983 243.338 32.7808C243.662 33.5633 243.828 34.402 243.827 35.2488Z" fill="#9AFFEC"/>
<path d="M80.6465 85.3026V2.89062H223.356V85.3026" stroke="#9AFFEC" stroke-width="5" stroke-miterlimit="10"/>
<path d="M223.356 83.1689H80.6465V83.9359H223.356V83.1689Z" fill="white" stroke="#9AFFEC" stroke-width="5" stroke-miterlimit="10"/>
</svg>
