<svg width="50" height="50" viewBox="0 0 50 50" fill="none" xmlns="http://www.w3.org/2000/svg">
<g clip-path="url(#clip0_44_525)">
<path d="M0.447018 47.3746L21.4235 26.0842C21.7072 25.7962 21.8666 25.4057 21.8666 24.9985C21.8666 24.5913 21.7072 24.2007 21.4235 23.9128L0.447018 2.62131C0.235483 2.40655 0.0914392 2.13297 0.0330847 1.83512C-0.0252697 1.53728 0.00467971 1.22857 0.119169 0.948006C0.233659 0.667445 0.427538 0.427635 0.676292 0.258895C0.925046 0.0901553 1.21751 5.84167e-05 1.51671 0L7.04127 0C7.44251 7.83547e-05 7.82728 0.161911 8.11096 0.449913L29.7699 22.4361H29.803V27.5335L8.11096 49.5501C7.82728 49.8381 7.44251 49.9999 7.04127 50H1.51671C1.21669 50.0007 0.923221 49.9109 0.673604 49.742C0.423988 49.5731 0.229487 49.3326 0.114833 49.0512C0.000179026 48.7698 -0.0294529 48.4602 0.0296951 48.1616C0.0888431 47.8631 0.234104 47.5892 0.447018 47.3746Z" fill="#9AFFED"/>
<path d="M20.6479 47.3746L41.6245 26.0842C41.9081 25.7962 42.0675 25.4057 42.0675 24.9985C42.0675 24.5913 41.9081 24.2007 41.6245 23.9128L20.6479 2.62131C20.4364 2.40655 20.2924 2.13297 20.234 1.83512C20.1756 1.53728 20.2056 1.22857 20.3201 0.948006C20.4346 0.667445 20.6285 0.427635 20.8772 0.258895C21.126 0.0901553 21.4184 5.84167e-05 21.7176 0L27.2422 0C27.6434 7.83547e-05 28.0282 0.161911 28.3119 0.449913L49.9669 22.4361H49.9999V27.5335L28.3079 49.5501C28.0242 49.8381 27.6394 49.9999 27.2382 50H21.7136C21.4139 49.9999 21.121 49.9095 20.872 49.7403C20.623 49.571 20.4291 49.3306 20.315 49.0493C20.2008 48.7681 20.1716 48.4588 20.2308 48.1606C20.2901 47.8625 20.4353 47.5889 20.6479 47.3746Z" fill="#9AFFED"/>
</g>
<defs>
<clipPath id="clip0_44_525">
<rect width="50" height="50" fill="white"/>
</clipPath>
</defs>
</svg>
