<svg width="50" height="50" viewBox="0 0 50 50" fill="none" xmlns="http://www.w3.org/2000/svg">
<g clip-path="url(#clip0_44_796)">
<path d="M49.553 47.3746L28.5765 26.0842C28.2928 25.7962 28.1335 25.4057 28.1335 24.9985C28.1335 24.5913 28.2928 24.2007 28.5765 23.9128L49.553 2.62131C49.7645 2.40655 49.9086 2.13297 49.9669 1.83512C50.0253 1.53728 49.9953 1.22857 49.8808 0.948006C49.7663 0.667445 49.5725 0.427635 49.3237 0.258895C49.075 0.0901553 48.7825 5.84167e-05 48.4833 0L42.9587 0C42.5575 7.83547e-05 42.1727 0.161911 41.889 0.449913L20.2301 22.4361H20.197V27.5335L41.889 49.5501C42.1727 49.8381 42.5575 49.9999 42.9587 50H48.4833C48.7833 50.0007 49.0768 49.9109 49.3264 49.742C49.576 49.5731 49.7705 49.3326 49.8852 49.0512C49.9998 48.7698 50.0295 48.4602 49.9703 48.1616C49.9112 47.8631 49.7659 47.5892 49.553 47.3746Z" fill="#9AFFED"/>
<path d="M29.3521 47.3746L8.37551 26.0842C8.09186 25.7962 7.93253 25.4057 7.93253 24.9985C7.93253 24.5913 8.09186 24.2007 8.37551 23.9128L29.3521 2.62131C29.5636 2.40655 29.7076 2.13297 29.766 1.83512C29.8244 1.53728 29.7944 1.22857 29.6799 0.948006C29.5654 0.667445 29.3715 0.427635 29.1228 0.258895C28.874 0.0901553 28.5816 5.84167e-05 28.2824 0L22.7578 0C22.3566 7.83547e-05 21.9718 0.161911 21.6881 0.449913L0.0331448 22.4361H0.000103487V27.5335L21.6921 49.5501C21.9758 49.8381 22.3606 49.9999 22.7618 50H28.2864C28.5861 49.9999 28.879 49.9095 29.128 49.7403C29.377 49.571 29.5709 49.3306 29.685 49.0493C29.7992 48.7681 29.8284 48.4588 29.7692 48.1606C29.7099 47.8625 29.5647 47.5889 29.3521 47.3746Z" fill="#9AFFED"/>
</g>
<defs>
<clipPath id="clip0_44_796">
<rect width="50" height="50" fill="white"/>
</clipPath>
</defs>
</svg>
